<?xml version="1.0" standalone="no"?>
<!DOCTYPE svg PUBLIC "-//W3C//DTD SVG 20010904//EN"
 "http://www.w3.org/TR/2001/REC-SVG-20010904/DTD/svg10.dtd">
<svg version="1.0" xmlns="http://www.w3.org/2000/svg"
 width="1050.000000pt" height="538.000000pt" viewBox="0 0 1050.000000 538.000000"
 preserveAspectRatio="xMidYMid meet">
<metadata>
Created by potrace 1.15, written by Peter Selinger 2001-2017
</metadata>
<g transform="translate(0.000000,538.000000) scale(0.100000,-0.100000)"
fill="#000000" stroke="none">
<path d="M6975 4605 c-243 -65 -438 -245 -513 -470 -11 -33 -73 -339 -138
-680 -132 -695 -137 -747 -96 -880 61 -198 236 -363 434 -410 91 -21 569 -21
676 0 248 50 469 248 545 490 9 28 69 331 133 675 128 678 135 737 100 855
-60 203 -216 360 -415 419 -73 21 -647 22 -726 1z m656 -428 c50 -34 79 -82
79 -134 0 -76 -226 -1256 -249 -1302 -31 -60 -73 -103 -128 -131 -47 -25 -53
-25 -318 -28 -269 -3 -271 -3 -305 20 -52 35 -80 83 -80 137 0 54 213 1205
237 1276 21 63 101 146 163 168 36 12 95 16 306 16 256 1 262 1 295 -22z"/>
<path d="M1265 4598 c-4 -13 -455 -2422 -455 -2432 0 -3 51 -6 114 -6 l114 0
26 143 c15 78 62 329 105 557 l77 415 460 3 460 2 20 110 20 110 -459 0 -459
0 5 28 c3 15 41 215 84 445 l78 417 531 0 532 0 17 98 c10 53 20 103 22 110 4
9 -128 12 -641 12 -508 0 -648 -3 -651 -12z"/>
<path d="M3182 4353 c-66 -142 -323 -689 -571 -1217 -248 -527 -451 -963 -451
-967 0 -5 69 -9 153 -9 l152 0 136 293 136 292 461 3 461 2 5 -32 c3 -18 17
-141 31 -273 14 -132 28 -250 31 -262 4 -23 7 -23 149 -23 113 0 145 3 145 13
0 17 -258 2337 -266 2395 l-6 42 -223 0 -222 0 -121 -257z m444 -1320 c-1 -2
-172 -2 -378 -1 l-374 3 305 651 306 651 72 -650 c40 -358 71 -652 69 -654z"/>
<path d="M5060 4603 c-181 -30 -361 -164 -443 -328 -50 -102 -62 -153 -62
-275 0 -95 4 -128 24 -189 46 -140 87 -187 480 -551 398 -368 404 -375 404
-485 1 -74 -28 -140 -80 -186 -69 -60 -63 -59 -527 -59 -396 0 -425 -1 -430
-17 -3 -10 -17 -81 -31 -158 -14 -77 -28 -153 -31 -168 l-6 -28 489 3 488 3
73 27 c106 38 175 83 250 163 202 213 228 516 65 762 -24 36 -160 170 -392
385 -369 341 -403 379 -416 464 -14 96 46 207 139 257 40 21 53 22 471 27
l429 5 33 170 c17 94 32 173 32 178 1 7 -913 8 -959 0z"/>
<path d="M8726 4593 c-3 -10 -104 -551 -226 -1203 -122 -652 -224 -1195 -227
-1207 l-5 -23 764 0 764 0 47 243 c26 133 48 250 47 260 0 16 -28 17 -500 15
l-500 -3 5 25 c10 49 355 1898 355 1904 0 3 -117 6 -259 6 -239 0 -260 -1
-265 -17z"/>
<path d="M1805 1372 c-38 -18 -95 -73 -95 -92 0 -5 -3 -15 -6 -24 -5 -13 1
-16 29 -16 28 0 43 8 70 36 28 30 42 37 74 38 49 1 73 -17 73 -54 0 -40 -29
-60 -101 -68 -61 -7 -63 -8 -70 -39 l-6 -33 58 0 c96 0 125 -50 63 -107 -46
-42 -138 -23 -146 30 -2 18 -10 23 -47 25 l-44 3 6 -37 c12 -70 74 -114 162
-114 98 0 172 51 182 127 5 39 -17 103 -36 103 -5 0 9 17 30 39 41 41 49 74
30 124 -25 65 -146 96 -226 59z"/>
<path d="M3409 1377 c-48 -18 -78 -40 -100 -74 -24 -35 -25 -68 -3 -59 9 3 28
6 44 6 20 0 31 6 35 21 9 27 69 52 106 44 34 -8 49 -31 49 -77 l0 -33 -68 -1
c-83 -1 -133 -17 -178 -56 -62 -55 -66 -144 -9 -198 36 -34 121 -39 175 -11
39 20 40 20 40 1 0 -17 7 -20 45 -20 l45 0 0 52 c0 28 10 107 21 174 21 120
21 122 3 160 -11 21 -31 47 -46 57 -33 25 -112 31 -159 14z m107 -279 c-8 -52
-38 -85 -87 -98 -48 -13 -86 1 -95 35 -15 62 39 104 135 105 l54 0 -7 -42z"/>
<path d="M5347 1376 c-48 -18 -85 -51 -103 -93 -8 -18 -14 -34 -14 -37 0 -2
19 -2 42 2 29 3 49 14 65 32 56 68 166 32 148 -48 -5 -26 -8 -27 -81 -29 -128
-2 -214 -64 -214 -155 0 -82 49 -128 138 -128 36 0 59 7 86 25 21 14 35 21 32
16 -14 -22 7 -41 45 -41 l39 0 0 43 c0 23 9 91 20 151 11 60 20 125 20 143 0
43 -22 85 -55 107 -36 24 -121 30 -168 12z m116 -273 c-9 -56 -18 -69 -68 -93
-53 -26 -87 -21 -110 14 -18 27 -9 60 21 87 24 21 45 26 111 28 l52 1 -6 -37z"/>
<path d="M6997 1376 c-48 -18 -85 -51 -103 -93 -8 -18 -14 -34 -14 -37 0 -2
19 -2 42 2 29 3 49 14 65 32 56 68 166 32 148 -48 -5 -26 -8 -27 -81 -29 -90
-1 -157 -30 -191 -82 -42 -62 -23 -155 37 -186 45 -23 121 -19 162 8 34 24 34
24 34 3 -1 -18 6 -21 42 -24 l42 -3 0 43 c0 24 9 92 20 152 11 60 20 125 20
143 0 43 -22 85 -55 107 -36 24 -121 30 -168 12z m117 -268 c-9 -55 -25 -77
-71 -99 -51 -25 -85 -20 -108 15 -18 27 -9 60 21 87 24 21 45 26 111 28 l53 1
-6 -32z"/>
<path d="M7922 1364 c-52 -26 -92 -71 -92 -104 0 -24 87 -14 93 11 7 26 71 52
108 44 34 -8 49 -31 49 -77 l0 -33 -78 -1 c-57 -1 -89 -7 -119 -22 -106 -55
-133 -162 -57 -233 35 -33 117 -38 172 -10 42 21 42 21 42 1 0 -17 7 -20 44
-20 l44 0 0 48 c0 26 10 105 22 174 22 125 22 128 4 164 -42 83 -137 107 -232
58z m134 -266 c-9 -52 -38 -85 -88 -99 -51 -13 -92 5 -96 43 -7 61 43 97 137
98 l54 0 -7 -42z"/>
<path d="M9386 1375 c-47 -17 -102 -70 -111 -107 -7 -26 -6 -26 37 -21 23 3
45 10 47 15 16 42 85 67 128 46 24 -11 28 -20 31 -58 l3 -45 -70 -1 c-121 -2
-203 -50 -221 -129 -26 -116 99 -196 212 -136 36 20 36 20 41 0 4 -15 14 -19
46 -19 l41 0 0 47 c0 27 9 101 21 166 24 134 20 172 -19 210 -50 48 -112 59
-186 32z m112 -277 c-11 -52 -40 -85 -87 -99 -74 -22 -120 26 -87 90 19 35 55
49 132 50 l52 1 -10 -42z"/>
<path d="M696 1363 c-10 -34 -76 -399 -76 -421 0 -19 6 -22 39 -22 l39 0 27
148 c14 81 28 151 29 157 2 5 20 -61 42 -148 l39 -158 28 3 c26 3 40 20 118
147 49 80 89 140 89 135 0 -5 -11 -68 -25 -139 -14 -72 -25 -134 -25 -138 0
-5 19 -7 42 -5 l43 3 42 220 c23 121 42 223 42 228 1 4 -23 7 -51 7 l-53 0
-100 -164 c-55 -90 -102 -162 -104 -160 -2 2 -20 74 -41 161 l-37 158 -51 3
c-41 2 -51 0 -56 -15z"/>
<path d="M1280 1369 c0 -6 16 -105 35 -221 l36 -210 -25 -42 c-32 -54 -44 -64
-92 -74 -35 -7 -39 -11 -42 -40 l-3 -32 48 0 c52 0 89 19 121 60 10 14 56 97
102 185 45 88 109 211 142 273 l60 112 -49 0 -49 0 -74 -156 c-54 -113 -76
-151 -80 -137 -4 10 -15 80 -25 156 l-17 137 -44 0 c-25 0 -44 -5 -44 -11z"/>
<path d="M2190 1378 c0 -2 -20 -106 -44 -232 l-43 -228 126 4 c111 3 131 7
171 28 90 50 117 168 53 232 -33 32 -82 47 -157 48 l-48 0 6 33 c4 17 9 51 13
75 l6 42 -42 0 c-22 0 -41 -1 -41 -2z m198 -240 c7 -7 12 -29 12 -50 0 -29 -7
-45 -26 -63 -23 -22 -37 -25 -95 -25 -46 0 -69 4 -69 12 0 6 5 40 11 75 l11
63 72 0 c43 0 77 -5 84 -12z"/>
<path d="M2610 1371 c0 -4 -18 -104 -40 -221 -22 -117 -40 -217 -40 -222 0 -5
19 -8 42 -6 l42 3 38 200 c20 110 39 212 42 228 5 26 4 27 -39 27 -25 0 -45
-4 -45 -9z"/>
<path d="M2850 1376 c0 -10 -81 -433 -85 -443 -3 -9 9 -13 40 -13 49 0 48 -2
65 100 16 96 17 98 45 92 19 -3 39 -27 81 -98 l56 -94 50 0 c57 0 60 -12 -33
138 l-58 95 70 78 c39 43 86 92 105 108 19 17 34 33 34 36 0 3 -23 5 -51 5
l-51 0 -90 -95 c-90 -95 -135 -121 -123 -72 3 12 11 55 19 95 l13 72 -44 0
c-23 0 -43 -2 -43 -4z"/>
<path d="M3846 1363 c-3 -10 -19 -80 -35 -156 -33 -151 -52 -189 -103 -203
-29 -8 -33 -14 -36 -47 -4 -41 5 -45 67 -27 74 21 110 79 147 238 13 59 27
115 30 125 4 14 17 17 70 17 35 0 64 -4 64 -9 0 -8 -54 -301 -66 -353 -5 -27
-4 -28 38 -28 l44 0 38 203 c21 111 40 214 43 230 l6 27 -151 0 c-135 0 -151
-2 -156 -17z"/>
<path d="M4256 1178 c-21 -112 -40 -215 -43 -230 l-5 -28 95 0 c53 0 119 5
147 11 86 18 140 80 140 159 0 90 -49 130 -167 138 -68 4 -72 6 -68 26 15 66
25 112 25 119 0 4 -19 7 -43 7 l-43 0 -38 -202z m240 -53 c21 -32 10 -79 -23
-105 -20 -16 -41 -20 -94 -20 -38 0 -69 2 -69 5 0 3 13 69 25 130 4 18 11 20
75 17 61 -3 73 -7 86 -27z"/>
<path d="M4726 1168 c-22 -117 -41 -221 -44 -231 -4 -16 1 -18 39 -15 l44 3
20 95 20 95 92 0 c78 0 92 -2 88 -15 -2 -8 -9 -44 -15 -80 -6 -36 -13 -73 -16
-82 -5 -15 2 -18 40 -18 25 0 46 3 46 8 0 4 18 103 40 221 22 117 40 218 40
223 0 5 -19 8 -42 6 l-43 -3 -12 -70 c-23 -127 -11 -115 -113 -115 -103 0 -98
-6 -75 100 20 92 21 90 -28 90 l-42 0 -39 -212z"/>
<path d="M5780 1357 c-63 -33 -85 -67 -85 -132 0 -45 4 -58 28 -83 l28 -29
-70 -89 c-39 -49 -71 -92 -71 -96 0 -5 20 -8 44 -8 44 0 45 1 113 90 l68 90
48 0 c54 0 54 1 32 -100 -8 -36 -14 -68 -15 -72 0 -5 20 -8 45 -8 25 0 45 4
45 9 0 4 18 104 40 221 22 117 40 217 40 221 0 5 -56 9 -123 9 -110 0 -129 -3
-167 -23z m190 -54 c0 -3 -5 -35 -11 -70 l-11 -63 -65 0 c-82 0 -103 11 -103
53 0 40 8 52 45 71 29 16 145 23 145 9z"/>
<path d="M6406 1168 c-22 -117 -41 -221 -44 -230 -4 -15 3 -18 40 -18 l45 0
17 98 c16 92 18 97 42 97 21 0 34 -16 82 -97 l57 -98 49 0 c58 0 59 -7 -27
133 l-65 104 104 104 c57 57 104 107 104 111 0 5 -22 8 -49 8 -48 0 -49 -1
-140 -95 -122 -126 -135 -126 -106 5 20 92 21 90 -28 90 l-42 0 -39 -212z"/>
<path d="M7366 1358 c-4 -13 -9 -59 -13 -103 -10 -134 32 -180 160 -179 43 1
67 -3 67 -10 0 -10 -9 -52 -25 -123 -5 -21 -2 -23 40 -23 25 0 45 4 45 9 0 4
18 104 40 221 22 117 40 217 40 222 0 5 -19 8 -42 6 l-42 -3 -21 -100 c-11
-55 -24 -106 -28 -112 -5 -8 -31 -13 -67 -13 -53 0 -61 3 -76 25 -15 24 -16
33 -2 115 l15 90 -43 0 c-35 0 -43 -4 -48 -22z"/>
<path d="M8385 1368 c-2 -7 -16 -71 -30 -143 -33 -159 -56 -206 -107 -219 -33
-8 -37 -13 -40 -48 -4 -43 6 -47 71 -28 76 21 110 79 150 253 l28 122 66 3
c37 2 67 0 67 -4 0 -3 -16 -89 -35 -191 -19 -102 -35 -187 -35 -189 0 -7 79
-4 84 4 4 6 86 431 86 446 0 3 -68 6 -150 6 -112 0 -152 -3 -155 -12z"/>
<path d="M8830 1371 c0 -4 -18 -104 -40 -221 -22 -117 -40 -217 -40 -222 0 -5
19 -8 42 -6 42 3 43 4 51 48 26 146 26 145 51 145 20 0 35 -17 82 -97 l59 -98
47 0 c27 0 48 2 48 5 0 2 -29 52 -65 109 -36 58 -66 110 -67 115 -2 5 43 56
100 114 56 58 102 108 102 111 0 3 -22 6 -49 6 -48 0 -49 -1 -142 -95 -51 -52
-100 -95 -109 -95 -15 0 -16 6 -4 73 8 39 16 82 19 95 5 20 2 22 -40 22 -25 0
-45 -4 -45 -9z"/>
</g>
</svg>
