<?xml version="1.0" standalone="no"?>
<!DOCTYPE svg PUBLIC "-//W3C//DTD SVG 20010904//EN"
 "http://www.w3.org/TR/2001/REC-SVG-20010904/DTD/svg10.dtd">
<svg version="1.0" xmlns="http://www.w3.org/2000/svg"
 width="3508.000000pt" height="1796.000000pt" viewBox="0 0 3508.000000 1796.000000"
 preserveAspectRatio="xMidYMid meet">
<metadata>
Created by potrace 1.15, written by Peter Selinger 2001-2017
</metadata>
<g transform="translate(0.000000,1796.000000) scale(0.100000,-0.100000)"
fill="#000000" stroke="none">
<path d="M23605 15444 c-636 -82 -1168 -360 -1561 -817 -235 -273 -408 -599
-499 -936 -33 -120 -785 -4115 -805 -4278 -15 -118 -13 -393 5 -517 28 -203
88 -401 176 -582 268 -552 777 -948 1373 -1069 207 -42 350 -47 1176 -42 628
3 784 7 870 20 326 49 630 152 886 302 566 331 965 861 1128 1500 15 60 763
4048 787 4200 19 116 16 436 -5 560 -51 307 -156 571 -327 820 -282 413 -713
699 -1224 812 l-120 27 -915 2 c-503 1 -928 0 -945 -2z m1728 -1390 c265 -68
450 -320 434 -589 -6 -93 -729 -3982 -768 -4125 -29 -108 -108 -262 -184 -357
-155 -193 -378 -325 -624 -367 -81 -14 -198 -16 -826 -16 -696 0 -736 1 -809
20 -107 27 -190 74 -267 151 -121 120 -187 285 -176 439 6 84 734 3989 767
4115 77 294 315 560 605 676 171 68 165 68 1019 68 668 1 776 -1 829 -15z"/>
<path d="M4230 15401 c0 -6 -342 -1837 -760 -4069 -418 -2233 -760 -4067 -760
-4076 0 -15 33 -16 367 -14 l368 3 332 1775 c182 976 339 1817 349 1868 l16
92 1533 0 1534 0 10 53 c26 129 121 644 121 655 0 9 -343 12 -1531 12 l-1531
0 4 23 c2 12 128 682 279 1489 l274 1468 1775 2 1774 3 63 335 c34 184 64 347
67 363 l5 27 -2144 0 c-1343 0 -2145 -4 -2145 -9z"/>
<path d="M9120 11334 c-1053 -2242 -1917 -4081 -1918 -4085 -2 -5 218 -8 504
-7 l509 3 460 982 460 983 1550 0 1550 0 109 -985 110 -985 478 0 c263 0 478
3 478 8 0 17 -901 8119 -906 8140 l-4 22 -733 0 -732 0 -1915 -4076z m2769
1006 c133 -1202 241 -2193 241 -2202 0 -17 -68 -18 -1280 -18 -704 0 -1280 3
-1280 8 0 17 2065 4411 2071 4404 3 -4 115 -990 248 -2192z"/>
<path d="M29156 15378 c-3 -18 -343 -1840 -756 -4048 -413 -2208 -753 -4030
-756 -4047 l-6 -33 2534 0 2534 0 162 828 c90 455 163 833 162 839 0 10 -346
13 -1678 15 l-1678 3 603 3220 c331 1771 603 3228 603 3238 0 16 -47 17 -859
17 l-859 0 -6 -32z"/>
<path d="M16976 15389 c-299 -39 -605 -152 -856 -316 -1002 -658 -1222 -2041
-472 -2974 104 -129 165 -187 1217 -1160 1159 -1071 1180 -1091 1241 -1175
175 -243 206 -566 80 -839 -104 -226 -288 -383 -543 -462 l-88 -28 -1382 -3
-1382 -3 -10 -52 c-18 -87 -211 -1121 -211 -1130 0 -4 685 -6 1523 -4 1682 3
1580 0 1847 68 569 147 1051 545 1310 1081 135 279 200 569 200 890 0 491
-163 934 -485 1318 -33 39 -575 549 -1205 1134 -630 584 -1165 1087 -1189
1117 -83 105 -145 243 -171 383 -17 91 -7 269 19 360 99 338 380 576 726 616
57 6 572 10 1405 10 l1315 0 108 583 c59 320 108 585 108 590 -1 10 -3021 6
-3105 -4z"/>
<path d="M6135 4615 c-233 -51 -407 -208 -431 -389 l-7 -46 126 0 126 0 22 50
c87 201 440 254 538 80 59 -105 -15 -257 -148 -306 -34 -12 -92 -18 -217 -21
l-172 -5 -17 -92 c-9 -50 -19 -98 -21 -107 -4 -15 15 -17 168 -22 192 -6 233
-14 283 -58 61 -54 68 -143 19 -240 -28 -56 -70 -93 -144 -128 -49 -23 -67
-26 -165 -26 -104 0 -113 2 -164 30 -68 38 -107 91 -123 166 l-12 59 -124 0
-125 0 6 -75 c13 -178 126 -311 316 -373 107 -35 308 -37 424 -4 253 72 396
239 397 463 0 120 -44 213 -126 267 l-42 29 75 49 c82 54 132 109 166 181 32
70 31 226 -2 300 -29 65 -112 146 -185 179 -113 52 -307 69 -441 39z"/>
<path d="M11427 4609 c-97 -23 -221 -87 -287 -146 -78 -70 -120 -144 -144
-255 l-6 -28 130 0 129 0 22 50 c55 128 232 212 382 181 140 -30 201 -134 177
-304 l-12 -85 -221 -5 c-179 -4 -238 -9 -303 -25 -217 -55 -361 -167 -426
-331 -18 -47 -22 -76 -23 -176 0 -113 2 -123 29 -178 36 -71 118 -150 190
-183 77 -35 197 -51 288 -37 117 17 193 52 327 150 l24 18 -7 -29 c-4 -15 -4
-48 0 -72 l6 -44 135 0 134 0 -8 48 c-17 98 -4 217 62 592 60 334 67 386 63
475 -3 82 -9 110 -30 158 -53 114 -158 197 -293 232 -82 21 -240 18 -338 -6z
m350 -806 c-3 -16 -16 -84 -28 -153 l-23 -125 -66 -65 c-194 -191 -468 -200
-544 -18 -35 84 -9 187 68 263 88 88 214 123 455 124 l144 1 -6 -27z"/>
<path d="M17945 4615 c-236 -52 -423 -215 -451 -392 l-7 -43 130 0 130 0 18
46 c24 64 80 118 161 156 61 28 79 32 154 32 77 0 91 -3 140 -31 44 -24 61
-42 84 -84 27 -52 28 -58 23 -157 -3 -56 -9 -107 -12 -112 -4 -6 -75 -10 -178
-10 -259 0 -397 -26 -538 -102 -173 -91 -260 -238 -263 -438 0 -87 2 -101 31
-162 124 -264 485 -317 762 -113 l60 44 3 -67 3 -67 130 -3 131 -3 0 143 c-1
134 4 167 68 518 60 329 67 386 63 462 -10 194 -132 336 -328 383 -78 18 -232
18 -314 0z m330 -807 c-3 -13 -16 -81 -30 -153 l-25 -129 -62 -64 c-222 -224
-559 -189 -558 59 1 128 99 238 250 279 77 21 140 27 288 29 l142 1 -5 -22z"/>
<path d="M23455 4615 c-172 -38 -325 -139 -403 -266 -18 -30 -52 -135 -52
-161 0 -4 58 -8 129 -8 l128 0 17 44 c64 168 339 251 484 146 45 -32 79 -96
83 -155 2 -22 0 -75 -5 -117 l-8 -78 -176 0 c-263 0 -401 -26 -540 -100 -118
-63 -201 -158 -241 -278 -28 -83 -29 -230 -2 -302 107 -283 516 -347 788 -124
l43 35 0 -48 c0 -97 -5 -93 140 -93 92 0 129 3 132 12 3 7 0 35 -5 63 -14 78
-3 175 69 577 74 420 79 497 35 610 -46 118 -180 222 -320 248 -73 14 -223 11
-296 -5z m332 -807 c-3 -13 -16 -77 -27 -143 -25 -137 -44 -172 -124 -237
-180 -143 -403 -155 -492 -26 -26 37 -29 50 -29 117 1 90 21 137 86 195 89 82
215 114 448 115 l143 1 -5 -22z"/>
<path d="M26615 4615 c-236 -52 -424 -216 -451 -392 l-7 -43 129 1 129 0 30
62 c53 110 165 172 310 171 92 -1 143 -21 192 -78 45 -51 57 -95 50 -195 -9
-132 9 -121 -196 -121 -257 0 -390 -25 -533 -102 -147 -78 -237 -205 -259
-364 -27 -194 52 -349 217 -426 179 -84 403 -52 581 83 l52 39 3 -68 3 -67
130 -3 131 -3 0 148 c0 139 4 171 67 518 37 203 67 393 67 422 0 211 -126 369
-332 418 -77 18 -232 18 -313 0z m329 -802 c-2 -10 -15 -79 -29 -153 l-25
-135 -69 -67 c-109 -105 -236 -157 -353 -144 -135 14 -204 89 -196 215 6 107
59 186 157 235 95 49 175 62 373 65 134 1 146 0 142 -16z"/>
<path d="M31435 4615 c-135 -29 -256 -94 -340 -181 -50 -51 -101 -149 -111
-211 l-7 -43 130 0 130 0 12 41 c8 25 31 60 59 88 165 164 452 135 503 -51 11
-41 7 -187 -7 -221 -4 -12 -45 -16 -227 -20 -254 -5 -324 -18 -464 -87 -160
-79 -256 -202 -283 -361 -45 -264 113 -462 385 -486 138 -11 289 35 412 128
l52 39 3 -68 3 -67 132 -3 131 -3 -5 118 c-5 113 -2 134 66 519 39 221 71 426
71 456 0 205 -129 365 -332 413 -77 18 -232 18 -313 0z m305 -927 c-15 -79
-32 -152 -38 -164 -6 -12 -38 -46 -71 -76 -228 -212 -546 -169 -544 73 1 109
64 197 180 251 86 41 181 56 354 57 l146 1 -27 -142z"/>
<path d="M2330 4596 c0 -2 -61 -329 -135 -727 -74 -398 -135 -731 -135 -741 0
-16 11 -18 124 -18 110 0 125 2 130 18 3 9 48 249 101 532 53 283 97 520 99
525 2 6 31 -105 65 -245 34 -140 94 -384 132 -542 l71 -288 91 0 92 0 315 510
c173 280 315 508 317 507 1 -2 -40 -229 -92 -506 -52 -277 -95 -505 -95 -507
0 -8 260 -4 260 4 1 4 63 338 138 742 l138 735 -155 3 c-85 1 -160 1 -166 -2
-7 -2 -167 -257 -356 -565 l-344 -561 -17 67 c-9 38 -69 292 -134 566 l-118
497 -163 0 c-90 0 -163 -2 -163 -4z"/>
<path d="M4276 4583 c2 -10 56 -337 119 -726 l116 -709 -66 -122 c-80 -149
-136 -215 -213 -253 -49 -24 -69 -28 -144 -28 -100 0 -91 10 -103 -115 -4 -36
-9 -73 -11 -82 -7 -24 83 -42 192 -36 76 3 99 9 156 37 77 38 166 121 224 208
32 49 964 1826 964 1838 0 3 -64 5 -142 5 l-143 0 -265 -544 c-146 -299 -266
-536 -268 -527 -2 9 -36 252 -75 541 l-72 525 -137 3 c-126 2 -136 1 -132 -15z"/>
<path d="M7181 3883 c-73 -395 -135 -730 -138 -745 l-5 -28 361 0 c407 0 463
6 589 66 81 39 189 133 228 199 66 114 93 295 60 410 -33 114 -107 200 -214
251 -86 41 -183 54 -393 54 -104 0 -189 3 -189 6 0 3 20 112 45 241 25 129 45
241 45 249 0 11 -23 14 -128 14 l-127 0 -134 -717z m736 -37 c71 -33 106 -87
111 -171 12 -178 -112 -321 -296 -344 -74 -9 -392 -3 -392 8 0 8 88 480 95
509 5 22 6 22 218 22 203 0 214 -1 264 -24z"/>
<path d="M8725 4578 c-3 -13 -63 -338 -135 -723 -71 -385 -132 -710 -135 -722
-5 -23 -5 -23 125 -23 126 0 130 1 135 23 3 12 64 337 135 722 72 385 132 710
135 723 5 22 5 22 -125 22 -126 0 -130 -1 -135 -22z"/>
<path d="M9391 3883 c-73 -395 -136 -730 -138 -745 l-5 -28 129 0 130 0 20
108 c11 59 38 200 59 314 l39 208 90 0 90 0 189 -315 189 -315 154 0 c85 0
152 3 150 8 -2 4 -104 171 -227 370 -122 200 -223 370 -224 377 0 7 158 176
352 374 l354 361 -170 0 -169 0 -299 -314 -299 -315 -67 0 c-38 -1 -68 3 -68
8 0 4 25 140 55 301 30 161 55 299 55 306 0 11 -27 14 -128 14 l-127 0 -134
-717z"/>
<path d="M12855 4588 c-2 -7 -38 -173 -80 -368 -107 -503 -128 -588 -165 -665
-61 -127 -151 -197 -271 -211 l-57 -6 -11 -87 c-6 -48 -11 -99 -11 -114 l0
-27 80 0 c225 0 367 91 469 302 58 118 88 223 188 663 l68 300 239 3 238 2 -6
-32 c-3 -18 -55 -298 -116 -622 -60 -325 -110 -596 -110 -603 0 -10 30 -13
130 -13 85 0 130 4 130 11 0 5 61 336 135 733 74 398 135 729 135 735 0 17
-979 16 -985 -1z"/>
<path d="M14211 3877 c-74 -397 -137 -732 -139 -744 l-4 -23 361 0 c408 0 463
6 589 66 103 50 202 145 246 238 99 207 67 438 -77 562 -103 87 -216 114 -488
114 -104 0 -189 2 -189 4 0 2 20 111 45 242 25 130 45 243 45 250 0 11 -27 14
-127 14 l-128 0 -134 -723z m736 -31 c71 -33 106 -87 111 -171 12 -179 -111
-321 -297 -344 -68 -9 -391 -3 -391 7 0 6 89 479 95 510 5 22 6 22 218 22 203
0 214 -1 264 -24z"/>
<path d="M15911 4548 c-6 -29 -67 -357 -136 -728 -69 -371 -127 -683 -129
-693 -4 -16 5 -17 127 -15 l130 3 52 275 c29 151 55 292 59 313 l7 37 325 0
c305 0 325 -1 320 -17 -3 -10 -28 -142 -56 -293 -28 -151 -54 -285 -57 -297
-5 -23 -5 -23 125 -23 l131 0 10 53 c6 28 67 356 136 727 69 371 127 683 129
693 4 16 -6 17 -127 15 l-130 -3 -32 -170 c-18 -93 -45 -236 -60 -317 l-27
-148 -325 0 c-304 0 -324 1 -319 18 3 9 28 143 56 297 28 154 54 290 57 303 5
22 5 22 -125 22 l-131 0 -10 -52z"/>
<path d="M19485 4594 c-116 -25 -195 -58 -281 -119 -124 -89 -188 -219 -187
-380 1 -145 54 -261 151 -326 26 -18 48 -33 50 -35 2 -1 -105 -140 -237 -308
-133 -168 -241 -308 -241 -311 0 -3 66 -5 148 -5 l147 1 224 289 224 290 174
0 173 0 -5 -22 c-3 -13 -25 -133 -50 -268 -25 -135 -47 -255 -50 -268 l-6 -23
132 3 132 3 132 705 c72 388 135 722 139 743 l7 37 -378 -1 c-208 -1 -387 -3
-398 -5z m472 -226 c-3 -13 -24 -122 -47 -243 -23 -121 -42 -220 -43 -220 -1
-1 -105 2 -232 5 -228 5 -230 5 -277 32 -152 90 -97 323 96 409 72 31 117 37
320 38 l188 1 -5 -22z"/>
<path d="M21530 4593 c0 -3 -61 -332 -135 -730 -74 -398 -135 -730 -135 -738
0 -12 22 -15 128 -15 l127 0 44 233 c24 127 50 269 58 315 l16 82 91 0 91 -1
188 -314 188 -315 156 0 155 0 -14 23 c-69 105 -448 729 -448 736 0 6 158 169
350 364 193 195 350 357 350 361 0 3 -74 6 -164 6 l-164 0 -302 -315 -302
-315 -64 0 c-52 0 -64 3 -64 16 0 8 25 147 55 308 30 160 55 295 55 299 0 4
-58 7 -130 7 -71 0 -130 -3 -130 -7z"/>
<path d="M24587 4383 c-48 -289 -50 -306 -38 -390 16 -109 45 -176 106 -241
98 -106 197 -142 391 -142 68 0 158 7 204 16 45 8 84 13 86 11 2 -2 -19 -115
-46 -252 -28 -137 -50 -255 -50 -262 0 -10 29 -13 128 -13 l128 0 137 738 c76
405 137 740 137 745 0 4 -58 7 -129 7 l-128 0 -73 -369 -72 -369 -61 -12 c-96
-19 -308 -25 -353 -10 -58 19 -104 58 -125 105 -36 81 -34 140 10 396 23 130
41 242 41 248 0 7 -41 11 -128 11 l-128 0 -37 -217z"/>
<path d="M27957 4298 c-37 -167 -80 -370 -97 -451 -73 -351 -162 -479 -353
-502 -47 -6 -58 -11 -62 -29 -4 -22 -25 -183 -25 -198 0 -14 173 -9 235 7 220
58 349 250 440 660 51 231 135 588 138 592 2 2 110 2 239 1 l235 -3 -118 -630
c-65 -346 -119 -631 -119 -632 0 -2 58 -3 130 -3 126 0 130 1 135 23 3 12 64
337 135 722 72 385 132 710 135 723 l5 22 -493 0 -494 0 -66 -302z"/>
<path d="M29505 4578 c-3 -13 -64 -338 -135 -723 -71 -385 -132 -710 -135
-722 -5 -23 -5 -23 125 -23 126 0 130 1 135 23 3 12 28 144 56 292 27 149 53
280 56 293 5 21 10 22 93 22 l88 0 189 -312 188 -313 154 -3 c121 -2 152 0
148 10 -2 7 -107 179 -232 382 l-226 369 263 266 c145 146 306 310 358 364
l95 97 -170 0 -170 -1 -299 -314 -299 -315 -69 0 c-66 0 -68 1 -63 23 3 12 28
144 55 292 27 149 52 280 55 293 5 22 5 22 -125 22 -126 0 -130 -1 -135 -22z"/>
</g>
</svg>
